<svg xmlns="http://www.w3.org/2000/svg" version="1.1" xmlns:xlink="http://www.w3.org/1999/xlink" xmlns:svgjs="http://svgjs.dev/svgjs" width="1920" height="1080" preserveAspectRatio="none" viewBox="0 0 1920 1080"><g mask="url(&quot;#SvgjsMask11492&quot;)" fill="none"><rect width="1920" height="1080" x="0" y="0" fill="rgba(11, 18, 31, 1)"></rect><circle r="90" cx="1199.93" cy="895.25" stroke="rgba(51, 156, 255, 1)" stroke-width="2.56" stroke-dasharray="4, 4"></circle><rect width="262.56" height="262.56" clip-path="url(&quot;#SvgjsClipPath11493&quot;)" x="1729.19" y="167.34" fill="url(&quot;#SvgjsPattern11494&quot;)" transform="rotate(201.76, 1860.47, 298.62)"></rect><path d="M929.04 442.48a5.6 5.6 0 1 0 11.12-1.32 5.6 5.6 0 1 0-11.12 1.32zM944.93 440.59a5.6 5.6 0 1 0 11.12-1.32 5.6 5.6 0 1 0-11.12 1.32zM960.81 438.7a5.6 5.6 0 1 0 11.13-1.32 5.6 5.6 0 1 0-11.13 1.32zM976.7 436.81a5.6 5.6 0 1 0 11.12-1.32 5.6 5.6 0 1 0-11.12 1.32z" fill="rgba(51, 156, 255, 1)"></path><rect width="77.6" height="77.6" clip-path="url(&quot;#SvgjsClipPath11495&quot;)" x="543.33" y="683.94" fill="url(&quot;#SvgjsPattern11496&quot;)" transform="rotate(200.56, 582.13, 722.74)"></rect><path d="M328.34000000000003 153.85999999999999 L506.62 361.66999999999996L237.838978361593 437.40602163840697z" stroke="rgba(187, 255, 52, 1)" stroke-width="2.96" stroke-dasharray="2, 2"></path><path d="M735.5300000000001 934.4200000000001 L955.5 1004.21L965.2886287163482 849.541371283652z" stroke="rgba(164, 177, 205, 1)" stroke-width="1.66"></path><circle r="139.62572830560643" cx="1326.05" cy="9.42" stroke="rgba(51, 156, 255, 1)" stroke-width="2.75" stroke-dasharray="3, 3"></circle><rect width="632.16" height="632.16" clip-path="url(&quot;#SvgjsClipPath11497&quot;)" x="903.56" y="331.54" fill="url(&quot;#SvgjsPattern11498&quot;)" transform="rotate(218.43, 1219.64, 647.62)"></rect></g><defs><mask id="SvgjsMask11492"><rect width="1920" height="1080" fill="#ffffff"></rect></mask><pattern x="0" y="0" width="10.94" height="10.94" patternUnits="userSpaceOnUse" id="SvgjsPattern11494"><path d="M5.47 1L5.47 9.94M1 5.47L9.94 5.47" stroke="rgba(187, 255, 52, 1)" fill="none" stroke-width="1.34"></path></pattern><clipPath id="SvgjsClipPath11493"><circle r="65.64" cx="1860.47" cy="298.62"></circle></clipPath><pattern x="0" y="0" width="7.76" height="7.76" patternUnits="userSpaceOnUse" id="SvgjsPattern11496"><path d="M0 7.76L3.88 0L7.76 7.76" stroke="rgba(187, 255, 52, 1)" fill="none"></path></pattern><clipPath id="SvgjsClipPath11495"><circle r="19.4" cx="582.13" cy="722.74"></circle></clipPath><pattern x="0" y="0" width="8.78" height="8.78" patternUnits="userSpaceOnUse" id="SvgjsPattern11498"><path d="M0 8.78L4.39 0L8.78 8.78" stroke="#e73635" fill="none"></path></pattern><clipPath id="SvgjsClipPath11497"><circle r="158.04" cx="1219.64" cy="647.62"></circle></clipPath></defs></svg>